<svg xmlns="http://www.w3.org/2000/svg" viewBox="0 0 257.76 66.11" role="img" aria-label="Populique primary logo">
  <path d="M28.42,28.17c-1.2-2.28-2.87-4.08-5.01-5.4-2.14-1.32-4.55-1.98-7.23-1.98-2.08,0-3.96.44-5.64,1.32-.6.32-1.16.67-1.67,1.06-.37.29-.91.03-.91-.44v-.77c0-.31-.25-.57-.57-.57H.67c-.31,0-.57.25-.57.57v33.51c0,3.91,3.17,7.09,7.09,7.09h.15c.31,0,.57-.25.57-.57v-12.9c0-.47.53-.73.9-.45.53.4,1.11.76,1.74,1.07,1.68.84,3.56,1.26,5.64,1.26,2.68,0,5.08-.66,7.2-1.98s3.79-3.12,5.01-5.4c1.22-2.28,1.83-4.84,1.83-7.68s-.6-5.46-1.8-7.74ZM21.19,39.9c-.62,1.18-1.47,2.11-2.55,2.79-1.08.68-2.34,1.02-3.78,1.02s-2.73-.34-3.87-1.02-2-1.61-2.58-2.79c-.58-1.18-.87-2.53-.87-4.05s.31-2.86.93-4.02c.62-1.16,1.48-2.08,2.58-2.76s2.35-1.02,3.75-1.02c1.48,0,2.76.34,3.84,1.02,1.08.68,1.93,1.6,2.55,2.76.62,1.16.93,2.5.93,4.02s-.31,2.87-.93,4.05Z" fill="#1B1D22"/>
  <path d="M48.52,51.02c-2.92,0-5.55-.67-7.89-2.01-2.34-1.34-4.19-3.16-5.55-5.46-1.36-2.3-2.04-4.89-2.04-7.77s.68-5.39,2.04-7.65c1.36-2.26,3.21-4.06,5.55-5.4,2.34-1.34,4.97-2.01,7.89-2.01s5.61.66,7.95,1.98c2.34,1.32,4.2,3.12,5.58,5.4,1.38,2.28,2.07,4.84,2.07,7.68s-.68,5.42-2.04,7.74c-1.36,2.32-3.22,4.15-5.58,5.49-2.36,1.34-5.02,2.01-7.98,2.01ZM48.52,43.64c1.48,0,2.79-.34,3.93-1.02,1.14-.68,2.02-1.6,2.64-2.76.62-1.16.93-2.5.93-4.02s-.33-2.86-.99-4.02c-.66-1.16-1.54-2.07-2.64-2.73-1.1-.66-2.39-.99-3.87-.99s-2.72.33-3.84.99c-1.12.66-1.99,1.57-2.61,2.73-.62,1.16-.93,2.5-.93,4.02s.31,2.86.93,4.02c.62,1.16,1.49,2.08,2.61,2.76,1.12.68,2.4,1.02,3.84,1.02Z" fill="#1B1D22"/>
  <path d="M97.05,28.17c-1.2-2.28-2.87-4.08-5.01-5.4-2.14-1.32-4.55-1.98-7.23-1.98-2.08,0-3.96.44-5.64,1.32-.6.32-1.16.67-1.67,1.06-.37.29-.91.03-.91-.44v-.77c0-.31-.25-.57-.57-.57h-6.73c-.31,0-.57.25-.57.57v33.51c0,3.91,3.17,7.09,7.09,7.09h.15c.31,0,.57-.25.57-.57v-12.9c0-.47.53-.73.9-.45.53.4,1.11.76,1.74,1.07,1.68.84,3.56,1.26,5.64,1.26,2.68,0,5.08-.66,7.2-1.98s3.79-3.12,5.01-5.4c1.22-2.28,1.83-4.84,1.83-7.68s-.6-5.46-1.8-7.74ZM89.82,39.9c-.62,1.18-1.47,2.11-2.55,2.79-1.08.68-2.34,1.02-3.78,1.02s-2.73-.34-3.87-1.02-2-1.61-2.58-2.79-.87-2.53-.87-4.05.31-2.86.93-4.02c.62-1.16,1.48-2.08,2.58-2.76s2.35-1.02,3.75-1.02c1.48,0,2.76.34,3.84,1.02,1.08.68,1.93,1.6,2.55,2.76.62,1.16.93,2.5.93,4.02s-.31,2.87-.93,4.05Z" fill="#1B1D22"/>
  <path d="M115.96,50.9c-2.52,0-4.78-.53-6.78-1.59-2-1.06-3.56-2.55-4.68-4.47-1.12-1.92-1.68-4.14-1.68-6.66v-16.23c0-.31.25-.57.57-.57h6.79c.31,0,.57.25.57.57v16.05c0,1.2.2,2.23.6,3.09.4.86,1,1.51,1.8,1.95.8.44,1.74.66,2.82.66,1.64,0,2.92-.5,3.84-1.5.92-1,1.38-2.4,1.38-4.2v-16.05c0-.31.25-.57.57-.57h6.73c.31,0,.57.25.57.57v16.23c0,2.52-.56,4.74-1.68,6.66-1.12,1.92-2.67,3.41-4.65,4.47-1.98,1.06-4.23,1.59-6.75,1.59Z" fill="#1B1D22"/>
  <path d="M134.92,49.81V8.25c0-.31.25-.56.57-.56h6.73c.31,0,.57.25.57.56v41.56c0,.31-.25.56-.57.56h-6.73c-.31,0-.57-.25-.57-.56Z" fill="#1B1D22"/>
  <rect x="145.7" y="0" width="48.91" height="66.11" rx="10.16" ry="10.16" fill="#174338"/>
  <path d="M152.62,16.7c-1.28,0-2.34-.43-3.18-1.29-.84-.86-1.26-1.93-1.26-3.21s.42-2.3,1.26-3.18c.84-.88,1.9-1.32,3.18-1.32s2.39.44,3.21,1.32c.82.88,1.23,1.94,1.23,3.18s-.41,2.35-1.23,3.21c-.82.86-1.89,1.29-3.21,1.29Z" fill="#FBF9F5"/>
  <path d="M148.6,49.8v-27.85c0-.31.25-.57.57-.57h6.85c.31,0,.57.25.57.57v27.85c0,.31-.25.57-.57.57h-6.85c-.31,0-.57-.25-.57-.57Z" fill="#FBF9F5"/>
  <path d="M183.64,21.95v.89c0,.48-.55.74-.92.44-.58-.47-1.21-.88-1.9-1.24-1.64-.84-3.5-1.26-5.58-1.26-2.64,0-5.01.66-7.11,1.98-2.1,1.32-3.76,3.12-4.98,5.4-1.22,2.28-1.83,4.86-1.83,7.74s.61,5.4,1.83,7.68c1.22,2.28,2.89,4.08,5.01,5.4s4.48,1.98,7.08,1.98c2.12,0,4-.42,5.64-1.26.67-.34,1.28-.74,1.84-1.19.37-.3.92-.04.92.43v13.03c0,.31.25.57.57.57h.21c3.91,0,7.09-3.17,7.09-7.09V21.95c0-.31-.25-.57-.57-.57h-6.73c-.31,0-.57.25-.57.57ZM182.05,41.49c-1.34,1.48-3.11,2.22-5.31,2.22-1.44,0-2.7-.34-3.78-1.02s-1.94-1.6-2.58-2.76c-.64-1.16-.96-2.52-.96-4.08s.32-2.86.96-4.02c.64-1.16,1.51-2.08,2.61-2.76,1.1-.68,2.35-1.02,3.75-1.02s2.72.33,3.84.99c1.12.66,1.98,1.59,2.58,2.79.6,1.2.9,2.56.9,4.08,0,2.24-.67,4.1-2.01,5.58Z" fill="#FBF9F5"/>
  <path d="M210.4,50.9c-2.52,0-4.78-.53-6.78-1.59-2-1.06-3.56-2.55-4.68-4.47-1.12-1.92-1.68-4.14-1.68-6.66v-16.23c0-.31.25-.57.57-.57h6.79c.31,0,.57.25.57.57v16.05c0,1.2.2,2.23.6,3.09.4.86,1,1.51,1.8,1.95.8.44,1.74.66,2.82.66,1.64,0,2.92-.5,3.84-1.5.92-1,1.38-2.4,1.38-4.2v-16.05c0-.31.25-.57.57-.57h6.73c.31,0,.57.25.57.57v16.23c0,2.52-.56,4.74-1.68,6.66-1.12,1.92-2.67,3.41-4.65,4.47-1.98,1.06-4.23,1.59-6.75,1.59Z" fill="#1B1D22"/>
  <path d="M255.1,27.75c-1.2-2.2-2.88-3.92-5.04-5.16-2.16-1.24-4.6-1.86-7.32-1.86-2.88,0-5.48.66-7.8,1.98-2.32,1.32-4.15,3.12-5.49,5.4-1.34,2.28-2.01,4.86-2.01,7.74s.68,5.52,2.04,7.8c1.36,2.28,3.23,4.08,5.61,5.4s5.09,1.98,8.13,1.98c2.36,0,4.54-.42,6.54-1.26,1.84-.77,3.45-1.9,4.85-3.37.21-.22.2-.58-.02-.79l-3.88-3.88c-.23-.23-.59-.21-.81.02-.79.82-1.7,1.43-2.72,1.84-1.2.48-2.54.72-4.02.72-1.64,0-3.08-.34-4.32-1.02s-2.19-1.67-2.85-2.97c-.26-.52-.47-1.07-.62-1.66l20.72-.05c.26,0,.5-.19.56-.45.1-.47.17-.91.2-1.32.04-.54.06-1.07.06-1.59,0-2.8-.6-5.3-1.8-7.5ZM235.36,32.78c.15-.54.34-1.04.57-1.52.62-1.26,1.51-2.23,2.67-2.91,1.16-.68,2.52-1.02,4.08-1.02s2.72.3,3.72.9,1.78,1.48,2.34,2.64c.17.35.31.72.43,1.12.11.37-.15.75-.54.75l-13.28.04Z" fill="#1B1D22"/>
</svg>
