<?xml version="1.0" encoding="UTF-8"?>
<svg id="Layer_1" xmlns="http://www.w3.org/2000/svg" version="1.1" viewBox="0 0 257.76 66.11">
  <!-- Generator: Adobe Illustrator 30.2.0, SVG Export Plug-In . SVG Version: 2.1.1 Build 105)  -->
  <defs>
    <style>
      .st0 {
        fill: #fbf9f5;
      }
    </style>
  </defs>
  <path class="st0" d="M28.42,28.17c-1.2-2.28-2.87-4.08-5.01-5.4s-4.55-1.98-7.23-1.98c-2.08,0-3.96.44-5.64,1.32-.6.32-1.16.67-1.67,1.06-.37.29-.91.03-.91-.44v-.77c0-.31-.25-.57-.57-.57H.67c-.31,0-.57.25-.57.57v33.51c0,3.91,3.17,7.09,7.09,7.09h.15c.31,0,.57-.25.57-.57v-12.9c0-.47.53-.73.9-.45.53.4,1.11.76,1.74,1.07,1.68.84,3.56,1.26,5.64,1.26,2.68,0,5.08-.66,7.2-1.98s3.79-3.12,5.01-5.4c1.22-2.28,1.83-4.84,1.83-7.68s-.6-5.46-1.8-7.74h-.01ZM21.19,39.9c-.62,1.18-1.47,2.11-2.55,2.79s-2.34,1.02-3.78,1.02-2.73-.34-3.87-1.02-2-1.61-2.58-2.79-.87-2.53-.87-4.05.31-2.86.93-4.02c.62-1.16,1.48-2.08,2.58-2.76s2.35-1.02,3.75-1.02c1.48,0,2.76.34,3.84,1.02s1.93,1.6,2.55,2.76c.62,1.16.93,2.5.93,4.02s-.31,2.87-.93,4.05Z"/>
  <path class="st0" d="M48.52,51.02c-2.92,0-5.55-.67-7.89-2.01s-4.19-3.16-5.55-5.46-2.04-4.89-2.04-7.77.68-5.39,2.04-7.65,3.21-4.06,5.55-5.4,4.97-2.01,7.89-2.01,5.61.66,7.95,1.98,4.2,3.12,5.58,5.4c1.38,2.28,2.07,4.84,2.07,7.68s-.68,5.42-2.04,7.74-3.22,4.15-5.58,5.49c-2.36,1.34-5.02,2.01-7.98,2.01ZM48.52,43.64c1.48,0,2.79-.34,3.93-1.02s2.02-1.6,2.64-2.76.93-2.5.93-4.02-.33-2.86-.99-4.02-1.54-2.07-2.64-2.73-2.39-.99-3.87-.99-2.72.33-3.84.99-1.99,1.57-2.61,2.73-.93,2.5-.93,4.02.31,2.86.93,4.02,1.49,2.08,2.61,2.76c1.12.68,2.4,1.02,3.84,1.02Z"/>
  <path class="st0" d="M97.05,28.17c-1.2-2.28-2.87-4.08-5.01-5.4s-4.55-1.98-7.23-1.98c-2.08,0-3.96.44-5.64,1.32-.6.32-1.16.67-1.67,1.06-.37.29-.91.03-.91-.44v-.77c0-.31-.25-.57-.57-.57h-6.73c-.31,0-.57.25-.57.57v33.51c0,3.91,3.17,7.09,7.09,7.09h.15c.31,0,.57-.25.57-.57v-12.9c0-.47.53-.73.9-.45.53.4,1.11.76,1.74,1.07,1.68.84,3.56,1.26,5.64,1.26,2.68,0,5.08-.66,7.2-1.98s3.79-3.12,5.01-5.4c1.22-2.28,1.83-4.84,1.83-7.68s-.6-5.46-1.8-7.74ZM89.82,39.9c-.62,1.18-1.47,2.11-2.55,2.79s-2.34,1.02-3.78,1.02-2.73-.34-3.87-1.02-2-1.61-2.58-2.79-.87-2.53-.87-4.05.31-2.86.93-4.02,1.48-2.08,2.58-2.76,2.35-1.02,3.75-1.02c1.48,0,2.76.34,3.84,1.02,1.08.68,1.93,1.6,2.55,2.76s.93,2.5.93,4.02-.31,2.87-.93,4.05Z"/>
  <path class="st0" d="M115.96,50.9c-2.52,0-4.78-.53-6.78-1.59s-3.56-2.55-4.68-4.47c-1.12-1.92-1.68-4.14-1.68-6.66v-16.23c0-.31.25-.57.57-.57h6.79c.31,0,.57.25.57.57v16.05c0,1.2.2,2.23.6,3.09s1,1.51,1.8,1.95c.8.44,1.74.66,2.82.66,1.64,0,2.92-.5,3.84-1.5s1.38-2.4,1.38-4.2v-16.05c0-.31.25-.57.57-.57h6.73c.31,0,.57.25.57.57v16.23c0,2.52-.56,4.74-1.68,6.66-1.12,1.92-2.67,3.41-4.65,4.47s-4.23,1.59-6.75,1.59h-.02Z"/>
  <path class="st0" d="M134.92,49.81V8.25c0-.31.25-.56.57-.56h6.73c.31,0,.57.25.57.56v41.56c0,.31-.25.56-.57.56h-6.73c-.31,0-.57-.25-.57-.56Z"/>
  <path class="st0" d="M183.16,31.83c.6,1.2.9,2.56.9,4.08,0,2.24-.67,4.1-2.01,5.58-1.34,1.48-3.11,2.22-5.31,2.22-1.44,0-2.7-.34-3.78-1.02-1.08-.68-1.94-1.6-2.58-2.76-.64-1.16-.96-2.52-.96-4.08s.32-2.86.96-4.02c.64-1.16,1.51-2.08,2.61-2.76,1.1-.68,2.35-1.02,3.75-1.02s2.72.33,3.84.99c1.12.66,1.98,1.59,2.58,2.79Z"/>
  <path class="st0" d="M184.45,0h-28.59c-5.61,0-10.16,4.55-10.16,10.16v45.79c0,5.61,4.55,10.16,10.16,10.16h28.59c5.61,0,10.16-4.55,10.16-10.16V10.16C194.61,4.55,190.06,0,184.45,0ZM156.59,49.8c0,.31-.25.57-.57.57h-6.85c-.31,0-.57-.25-.57-.57v-27.85c0-.31.25-.57.57-.57h6.85c.31,0,.57.25.57.57v27.85ZM155.83,15.41c-.82.86-1.89,1.29-3.21,1.29s-2.34-.43-3.18-1.29c-.84-.86-1.26-1.93-1.26-3.21s.42-2.3,1.26-3.18,1.9-1.32,3.18-1.32,2.39.44,3.21,1.32,1.23,1.94,1.23,3.18-.41,2.35-1.23,3.21ZM191.51,55.45c0,3.92-3.18,7.09-7.09,7.09h-.21c-.32,0-.57-.26-.57-.57v-13.03c0-.47-.55-.73-.92-.43-.56.45-1.17.85-1.84,1.19-1.64.84-3.52,1.26-5.64,1.26-2.6,0-4.96-.66-7.08-1.98-2.12-1.32-3.79-3.12-5.01-5.4-1.22-2.28-1.83-4.8-1.83-7.68s.61-5.46,1.83-7.74c1.22-2.28,2.88-4.08,4.98-5.4s4.47-1.98,7.11-1.98c2.08,0,3.94.42,5.58,1.26.69.36,1.32.77,1.9,1.24.37.3.92.04.92-.44v-.89c0-.32.26-.57.57-.57h6.73c.32,0,.57.26.57.57v33.5Z"/>
  <path class="st0" d="M210.4,50.9c-2.52,0-4.78-.53-6.78-1.59s-3.56-2.55-4.68-4.47c-1.12-1.92-1.68-4.14-1.68-6.66v-16.23c0-.31.25-.57.57-.57h6.79c.31,0,.57.25.57.57v16.05c0,1.2.2,2.23.6,3.09.4.86,1,1.51,1.8,1.95.8.44,1.74.66,2.82.66,1.64,0,2.92-.5,3.84-1.5s1.38-2.4,1.38-4.2v-16.05c0-.31.25-.57.57-.57h6.73c.31,0,.57.25.57.57v16.23c0,2.52-.56,4.74-1.68,6.66-1.12,1.92-2.67,3.41-4.65,4.47s-4.23,1.59-6.75,1.59h-.02Z"/>
  <path class="st0" d="M255.1,27.75c-1.2-2.2-2.88-3.92-5.04-5.16-2.16-1.24-4.6-1.86-7.32-1.86-2.88,0-5.48.66-7.8,1.98s-4.15,3.12-5.49,5.4c-1.34,2.28-2.01,4.86-2.01,7.74s.68,5.52,2.04,7.8,3.23,4.08,5.61,5.4,5.09,1.98,8.13,1.98c2.36,0,4.54-.42,6.54-1.26,1.84-.77,3.45-1.9,4.85-3.37.21-.22.2-.58-.02-.79l-3.88-3.88c-.23-.23-.59-.21-.81.02-.79.82-1.7,1.43-2.72,1.84-1.2.48-2.54.72-4.02.72-1.64,0-3.08-.34-4.32-1.02s-2.19-1.67-2.85-2.97c-.26-.52-.47-1.07-.62-1.66l20.72-.05c.26,0,.5-.19.56-.45.1-.47.17-.91.2-1.32.04-.54.06-1.07.06-1.59,0-2.8-.6-5.3-1.8-7.5h0ZM235.36,32.78c.15-.54.34-1.04.57-1.52.62-1.26,1.51-2.23,2.67-2.91s2.52-1.02,4.08-1.02,2.72.3,3.72.9,1.78,1.48,2.34,2.64c.17.35.31.72.43,1.12.11.37-.15.75-.54.75l-13.28.04h0Z"/>
</svg>