<svg xmlns="http://www.w3.org/2000/svg" viewBox="0 0 256 256" role="img" aria-label="Populique primary app icon">
  <rect width="256" height="256" rx="38" fill="#F3EFE8"/>
  <g transform="translate(-356.94 33.79) scale(2.85)">
    <rect x="145.7" y="0" width="48.91" height="66.11" rx="10.16" ry="10.16" fill="#174338"/>
    <path d="M152.62,16.7c-1.28,0-2.34-.43-3.18-1.29-.84-.86-1.26-1.93-1.26-3.21s.42-2.3,1.26-3.18c.84-.88,1.9-1.32,3.18-1.32s2.39.44,3.21,1.32c.82.88,1.23,1.94,1.23,3.18s-.41,2.35-1.23,3.21c-.82.86-1.89,1.29-3.21,1.29Z" fill="#FBF9F5"/>
    <path d="M148.6,49.8v-27.85c0-.31.25-.57.57-.57h6.85c.31,0,.57.25.57.57v27.85c0,.31-.25.57-.57.57h-6.85c-.31,0-.57-.25-.57-.57Z" fill="#FBF9F5"/>
    <path d="M183.64,21.95v.89c0,.48-.55.74-.92.44-.58-.47-1.21-.88-1.9-1.24-1.64-.84-3.5-1.26-5.58-1.26-2.64,0-5.01.66-7.11,1.98-2.1,1.32-3.76,3.12-4.98,5.4-1.22,2.28-1.83,4.86-1.83,7.74s.61,5.4,1.83,7.68c1.22,2.28,2.89,4.08,5.01,5.4s4.48,1.98,7.08,1.98c2.12,0,4-.42,5.64-1.26.67-.34,1.28-.74,1.84-1.19.37-.3.92-.04.92.43v13.03c0,.31.25.57.57.57h.21c3.91,0,7.09-3.17,7.09-7.09V21.95c0-.31-.25-.57-.57-.57h-6.73c-.31,0-.57.25-.57.57ZM182.05,41.49c-1.34,1.48-3.11,2.22-5.31,2.22-1.44,0-2.7-.34-3.78-1.02s-1.94-1.6-2.58-2.76c-.64-1.16-.96-2.52-.96-4.08s.32-2.86.96-4.02c.64-1.16,1.51-2.08,2.61-2.76,1.1-.68,2.35-1.02,3.75-1.02s2.72.33,3.84.99c1.12.66,1.98,1.59,2.58,2.79.6,1.2.9,2.56.9,4.08,0,2.24-.67,4.1-2.01,5.58Z" fill="#FBF9F5"/>
  </g>
</svg>
