<?xml version="1.0" encoding="UTF-8"?>
<svg id="Layer_1" xmlns="http://www.w3.org/2000/svg" version="1.1" viewBox="0 0 256 256">
  <!-- Generator: Adobe Illustrator 30.2.0, SVG Export Plug-In . SVG Version: 2.1.1 Build 105)  -->
  <defs>
    <style>
      .st0 {
        fill: #f3efe8;
      }

      .st1 {
        fill: #1b1d22;
      }
    </style>
  </defs>
  <rect class="st0" y="0" width="256" height="256" rx="38" ry="38"/>
  <rect class="st0" y="0" width="256" height="256" rx="38" ry="38"/>
  <g>
    <path class="st1" d="M165.07,124.51c1.71,3.42,2.56,7.29,2.56,11.62,0,6.39-1.91,11.69-5.73,15.91-3.82,4.21-8.86,6.32-15.13,6.32-4.11,0-7.7-.97-10.77-2.9-3.08-1.94-5.53-4.56-7.36-7.87-1.82-3.31-2.73-7.18-2.73-11.63s.91-8.15,2.73-11.45c1.83-3.31,4.31-5.93,7.44-7.87,3.14-1.94,6.7-2.91,10.69-2.91s7.75.94,10.94,2.82c3.19,1.89,5.65,4.54,7.36,7.96Z"/>
    <path class="st1" d="M168.74,33.79h-81.48c-15.99,0-28.96,12.96-28.96,28.96v130.5c0,15.99,12.97,28.95,28.96,28.95h81.48c15.99,0,28.96-12.96,28.96-28.95V62.75c0-16-12.97-28.96-28.96-28.96ZM89.34,175.72c0,.88-.71,1.62-1.62,1.62h-19.53c-.88,0-1.62-.71-1.62-1.62v-79.37c0-.89.71-1.63,1.62-1.63h19.53c.88,0,1.62.72,1.62,1.63v79.37ZM87.18,77.71c-2.34,2.45-5.39,3.68-9.15,3.68s-6.67-1.23-9.07-3.68c-2.39-2.45-3.59-5.5-3.59-9.15s1.2-6.55,3.59-9.06c2.4-2.51,5.42-3.76,9.07-3.76s6.81,1.25,9.15,3.76c2.33,2.51,3.5,5.53,3.5,9.06s-1.17,6.7-3.5,9.15ZM188.86,191.82c0,11.17-9.06,20.21-20.2,20.21h-.6c-.91,0-1.63-.74-1.63-1.63v-37.13c0-1.34-1.56-2.08-2.62-1.23-1.59,1.29-3.33,2.43-5.24,3.4-4.68,2.39-10.03,3.59-16.08,3.59-7.41,0-14.13-1.88-20.17-5.65-6.05-3.76-10.81-8.89-14.28-15.39-3.48-6.49-5.22-13.68-5.22-21.88s1.74-15.57,5.22-22.06c3.47-6.5,8.21-11.63,14.19-15.39,5.99-3.77,12.74-5.65,20.26-5.65,5.93,0,11.23,1.2,15.91,3.59,1.96,1.03,3.76,2.2,5.41,3.54,1.06.85,2.62.11,2.62-1.26v-2.53c0-.91.75-1.63,1.63-1.63h19.18c.91,0,1.62.74,1.62,1.63v95.47Z"/>
  </g>
</svg>